<?xml version="1.0" encoding="UTF-8" standalone="no"?>
<svg
   xmlns:dc="http://purl.org/dc/elements/1.1/"
   xmlns:cc="http://creativecommons.org/ns#"
   xmlns:rdf="http://www.w3.org/1999/02/22-rdf-syntax-ns#"
   xmlns:svg="http://www.w3.org/2000/svg"
   xmlns="http://www.w3.org/2000/svg"
   viewBox="0 0 571.58667 102.48"
   height="102.48"
   width="571.58667"
   xml:space="preserve"
   id="svg2"
   version="1.1"><metadata
     id="metadata8"><rdf:RDF><cc:Work
         rdf:about=""><dc:format>image/svg+xml</dc:format><dc:type
           rdf:resource="http://purl.org/dc/dcmitype/StillImage" /></cc:Work></rdf:RDF></metadata><defs
     id="defs6" /><g
     transform="matrix(1.3333333,0,0,-1.3333333,0,102.48)"
     id="g10"><g
       transform="scale(0.1)"
       id="g12"><path
         id="path14"
         style="fill:#231f20;fill-opacity:1;fill-rule:nonzero;stroke:none"
         d="M 1818.27,424.375 V 303.527 h -53.72 v 276.016 h 53.72 V 474.641 h 54.19 v -50.266 z m -286.55,68.645 c -11.63,-11.606 -17.45,-25.625 -17.45,-42.063 0,-16.121 5.82,-29.969 17.45,-41.57 11.63,-11.602 25.41,-17.403 41.33,-17.403 15.31,0 29.08,5.801 41.33,17.403 12.86,11.922 19.29,25.777 19.29,41.57 0,16.438 -6.43,30.457 -19.29,42.063 -11.93,10.945 -25.71,16.425 -41.33,16.425 -15.92,0 -29.7,-5.48 -41.33,-16.425 z m -56.93,-177.891 h 53.72 v -92.324 h 292.98 V 173.02 h -315.02 c -10.72,0 -18.53,2.742 -23.42,8.222 -5.51,5.797 -8.26,15.145 -8.26,28.028 z m 183.22,199.156 c 8.57,-8.062 15.31,-17.398 20.21,-28.043 5.51,-11.281 8.26,-23.039 8.26,-35.285 0,-31.902 -11.48,-57.996 -34.44,-78.309 -21.74,-19.652 -47.91,-29.484 -78.53,-29.484 -30.3,0 -56.47,9.832 -78.51,29.484 -23.28,20.625 -34.91,46.727 -34.91,78.309 0,12.246 2.3,23.848 6.89,34.805 4.28,9.992 10.71,19.492 19.28,28.523 h -41.78 v 48.813 h 100.1 v 39.16 h 57.87 v -39.16 h 98.27 v -48.813 h -42.71" /><path
         id="path16"
         style="fill:#231f20;fill-opacity:1;fill-rule:nonzero;stroke:none"
         d="m 2258.29,275.977 h -307.21 v 49.796 H 2312 V 170.605 h -53.71 z m 0,159.992 v 93.777 h -307.21 v 49.797 H 2312 V 435.969 Z M 2105.83,391.027 H 1937.3 v 50.262 h 394.45 v -50.262 h -173.11 v -79.765 h -52.81 v 79.765" /><path
         id="path18"
         style="fill:#231f20;fill-opacity:1;fill-rule:nonzero;stroke:none"
         d="m 2530.22,507.031 c -8.57,-7.414 -12.87,-16.433 -12.87,-27.07 0,-11.277 4.3,-20.945 12.87,-29.004 8.27,-7.734 18.05,-11.602 29.38,-11.602 11.64,0 21.43,3.868 29.39,11.602 8.58,7.734 12.86,17.402 12.86,29.004 0,10.637 -4.28,19.656 -12.86,27.07 -8.26,7.414 -18.06,11.125 -29.39,11.125 -11.33,0 -21.11,-3.711 -29.38,-11.125 z M 2462.26,296.77 h 53.73 v -73.965 h 292.97 V 173.02 H 2494.4 c -10.72,0 -18.67,2.742 -23.88,8.222 -5.51,5.797 -8.26,15.313 -8.26,28.516 z m 214.9,222.343 h -36.74 c 4.3,-6.125 7.5,-12.246 9.65,-18.359 2.75,-6.777 4.14,-13.715 4.14,-20.793 0,-24.492 -9.65,-44.949 -28.93,-61.387 -18.06,-15.144 -39.2,-22.722 -63.38,-22.722 -26.32,0 -48.82,7.578 -67.5,22.722 -19.59,16.106 -29.39,36.574 -29.39,61.387 0,6.769 1.23,13.535 3.67,20.305 2.15,6.113 5.35,12.402 9.65,18.847 h -36.74 v 44.961 h 90.47 v 38.184 h 56.93 v -38.184 h 88.17 z m 74.86,60.43 h 53.71 v -66.711 h 53.73 v -49.797 h -53.73 V 273.074 h -53.71 v 64.297 h -320.99 v 49.301 h 99.19 v 46.894 h 56.02 v -46.894 h 165.78 v 192.871" /><path
         id="path20"
         style="fill:#231f20;fill-opacity:1;fill-rule:nonzero;stroke:none"
         d="m 3245.75,546.184 v 33.359 h 53.73 V 390.535 h -53.73 v 32.387 h -75.76 v 49.305 h 75.76 v 24.66 h -75.76 v 49.297 z M 3106.61,322.863 c -15,-13.859 -22.5,-30.785 -22.5,-50.754 0,-19.992 7.5,-37.058 22.5,-51.242 14.71,-13.855 31.52,-20.777 50.51,-20.777 19.3,0 36.13,6.922 50.53,20.777 14.98,14.184 22.5,31.25 22.5,51.242 0,19.969 -7.52,36.895 -22.5,50.754 -14.4,13.535 -31.23,20.301 -50.53,20.301 -18.99,0 -35.8,-6.766 -50.51,-20.301 z m 137.77,38.672 c 26.94,-23.527 40.41,-53.34 40.41,-89.426 0,-36.093 -13.47,-66.062 -40.41,-89.91 -24.8,-22.226 -54.19,-33.351 -88.18,-33.351 -33.96,0 -63.2,11.125 -87.69,33.351 -26.04,23.524 -39.05,53.496 -39.05,89.91 0,36.086 13.01,65.899 39.05,89.426 24.49,21.914 53.73,32.871 87.69,32.871 33.99,0 63.38,-10.957 88.18,-32.871 z m -88.18,218.008 v -27.07 c 0,-64.145 -24.94,-111.352 -74.84,-141.633 -36.74,-22.567 -84.34,-34.805 -142.82,-36.738 v 52.683 c 54.18,1.613 95.36,12.895 123.54,33.84 24.47,18.047 36.74,41.242 36.74,69.602 h -154.3 v 49.316 h 211.68" /><path
         id="path22"
         style="fill:#231f20;fill-opacity:1;fill-rule:nonzero;stroke:none"
         d="m 3739.5,409.871 h -56.48 v 49.301 h 56.48 v 27.558 h -56.48 v 49.297 h 56.48 v 43.516 h 53.71 V 381.359 h -53.71 z m 0.45,-145.973 h -237.4 v -41.574 h 237.4 z m -227.3,238.301 c -9.81,-9.355 -14.69,-20.625 -14.69,-33.84 0,-12.89 4.88,-24.011 14.69,-33.347 9.49,-9.356 20.97,-14.024 34.43,-14.024 12.87,0 24.49,4.668 34.9,14.024 10.41,9.668 15.63,20.777 15.63,33.347 0,13.215 -5.22,24.485 -15.63,33.84 -10.1,8.699 -21.74,13.043 -34.9,13.043 -13.46,0 -24.94,-4.344 -34.43,-13.043 z m -62.91,-152.754 h 52.81 v -39.14 h 237.4 v 39.14 h 53.26 V 209.27 c 0,-13.204 -2.91,-22.551 -8.71,-28.028 -4.9,-5.48 -12.71,-8.222 -23.42,-8.222 h -279.2 c -10.72,0 -18.67,2.742 -23.88,8.222 -5.51,5.797 -8.26,15.145 -8.26,28.028 z m 182.3,166.778 c 5.2,-6.457 9.34,-13.379 12.4,-20.793 3.36,-8.059 5.04,-16.438 5.04,-25.137 0,-28.68 -10.41,-52.195 -31.21,-70.574 -19.3,-17.082 -42.71,-25.617 -70.27,-25.617 -27.54,0 -51.27,8.535 -71.17,25.617 -21.12,18.379 -31.68,41.894 -31.68,70.574 0,8.699 1.52,17.078 4.59,25.137 3.06,7.414 7.34,14.336 12.85,20.793 h -33.52 v 46.875 h 90 v 39.16 h 57.87 v -39.16 h 87.7 v -46.875 h -32.6" /><path
         id="path24"
         style="fill:#231f20;fill-opacity:1;fill-rule:nonzero;stroke:none"
         d="m 3999.03,494.949 c -12.24,-11.929 -18.38,-26.59 -18.38,-43.992 0,-17.078 6.14,-31.746 18.38,-43.984 12.25,-11.922 26.94,-17.879 44.09,-17.879 16.23,0 30.44,5.957 42.71,17.879 12.23,12.238 18.36,26.906 18.36,43.984 0,17.402 -6.13,32.063 -18.36,43.992 -11.95,11.606 -26.19,17.406 -42.71,17.406 -17.15,0 -31.84,-5.8 -44.09,-17.406 z m 150.63,18.852 h -18.83 c 8.26,-8.379 14.69,-17.735 19.28,-28.039 5.19,-10.957 7.81,-22.559 7.81,-34.805 0,-32.227 -11.8,-58.816 -35.37,-79.758 -22.03,-19.976 -48.52,-29.969 -79.43,-29.969 -31.24,0 -58.17,9.993 -80.83,29.969 -23.57,20.942 -35.35,47.531 -35.35,79.758 0,11.602 2.29,23.035 6.88,34.328 4.3,9.981 10.56,19.492 18.83,28.516 h -8.27 -26.17 v 49.297 h 95.98 v 39.16 h 57.85 v -39.16 h 95.06 v -49.297 z m 83.57,-285.676 h -320.99 v 50.266 h 104.7 v 79.765 h 52.35 v -79.765 h 163.94 v 301.152 h 53.71 V 170.605 h -53.71 v 57.52" /><path
         id="path26"
         style="fill:#231f20;fill-opacity:1;fill-rule:nonzero;stroke:none"
         d="M 1031,490.527 V 387.863 h -25.82 V 584.367 H 1031 v -69.922 h 26.03 v -23.918 z m -103.051,93.84 c 0,-43.672 4.117,-75.644 12.356,-95.937 7.351,-18.106 18.898,-28.567 34.64,-31.352 v -27.867 c -13.535,1.699 -25.3,6.883 -35.3,15.555 -10.891,9.445 -19.348,22.683 -25.375,39.718 -6.184,-16.562 -15.227,-29.804 -27.145,-39.718 -10.301,-8.516 -21.555,-13.7 -33.762,-15.555 v 27.637 c 15.739,3.093 27.438,13.621 35.082,31.582 8.532,20.293 12.801,52.265 12.801,95.937 h 26.703" /><path
         id="path28"
         style="fill:#231f20;fill-opacity:1;fill-rule:nonzero;stroke:none"
         d="m 1279.55,518.398 v -66.66 h -25.82 v 132.629 h 25.82 v -41.816 h 26.03 v -24.153 z m -165.06,-61.785 h 25.82 v -43.672 h 140.78 v -23.918 h -151.15 c -5.15,0 -8.98,1.321 -11.48,3.957 -2.64,2.774 -3.97,7.274 -3.97,13.465 z m 17.65,50.172 h 126.44 v -23.687 h -137.03 c -5.3,0 -9.12,1.308 -11.47,3.941 -2.65,2.797 -3.97,7.356 -3.97,13.715 v 83.613 h 106.58 v -23.926 h -80.55 v -53.656" /><path
         id="path30"
         style="fill:#231f20;fill-opacity:1;fill-rule:nonzero;stroke:none"
         d="m 1005.18,326.16 v 32.055 H 1031 v -94.301 h -25.82 v 38.324 h -47.227 v 23.922 z m 0.22,-120.777 H 891.316 V 186.34 H 1005.4 Z m -122.025,86.64 h 56.488 v 24.844 h -56.488 z m -17.434,-45.058 h 25.375 V 227.688 H 1005.4 v 19.277 h 25.6 v -66.66 c 0,-6.36 -1.41,-10.93 -4.2,-13.711 -2.35,-2.629 -6.11,-3.946 -11.25,-3.946 H 881.387 c -5.153,0 -8.977,1.317 -11.477,3.946 -2.644,2.781 -3.969,7.273 -3.969,13.476 z m 99.297,39.48 c 0,-6.504 -1.32,-11.23 -3.972,-14.168 -2.5,-2.636 -6.254,-3.949 -11.25,-3.949 h -77.453 c -5.153,0 -8.903,1.313 -11.254,3.949 -2.504,2.793 -3.75,7.508 -3.75,14.168 v 71.77 h 25.816 v -19.043 h 56.488 v 19.043 h 25.375 v -71.77" /><path
         id="path32"
         style="fill:#231f20;fill-opacity:1;fill-rule:nonzero;stroke:none"
         d="m 1253.73,358.215 h 25.82 V 225.598 h -25.82 z m -119.38,-25.313 c -6.62,-6.035 -9.93,-13.476 -9.93,-22.304 0,-8.52 3.31,-15.793 9.93,-21.836 6.32,-5.879 13.6,-8.821 21.85,-8.821 7.94,0 15.07,2.942 21.4,8.821 6.77,6.043 10.15,13.316 10.15,21.836 0,8.672 -3.38,16.113 -10.15,22.304 -6.33,5.879 -13.46,8.828 -21.4,8.828 -8.25,0 -15.53,-2.949 -21.85,-8.828 z M 1114.49,231.16 h 25.82 v -44.363 h 140.78 v -23.926 h -151.37 c -5.15,0 -8.9,1.32 -11.26,3.953 -2.64,2.785 -3.97,7.278 -3.97,13.481 z m 81.65,120.551 c 12.05,-10.684 18.09,-24.387 18.09,-41.113 0,-16.407 -6.04,-29.961 -18.09,-40.649 -11.34,-10.066 -24.65,-15.094 -39.94,-15.094 -15.6,0 -28.99,5.028 -40.16,15.094 -11.92,10.531 -17.88,24.086 -17.88,40.649 0,16.726 5.96,30.429 17.88,41.113 11.17,10.066 24.56,15.098 40.16,15.098 15.29,0 28.6,-5.032 39.94,-15.098" /><path
         id="path34"
         style="fill:#8bca25;fill-opacity:1;fill-rule:nonzero;stroke:none"
         d="m 220.332,111.672 c 0,0 -156.0937,45.672 -208.2656,182.027 -24.5703,64.223 -13.96093,124.516 53.6016,138.481 67.562,13.953 167.512,-26.797 234.512,-84.317 0,0 114.961,168.496 255.175,161.922 71.469,-3.347 169.258,-61.043 123.399,-193.75 C 652.512,240.098 574.898,129.539 397.895,0 c 0,0 119.96,115.676 144.621,284.758 0,0 18.933,105.445 -102.184,92.691 -53.043,-5.582 -92.129,-17.301 -146.848,-57.508 0,0 -97.601,55.696 -150.765,12.286 -60.8596,-49.696 0.562,-149.637 77.613,-220.555" /><path
         id="path36"
         style="fill:#204878;fill-opacity:1;fill-rule:nonzero;stroke:none"
         d="m 209.355,259.688 h 39.84 v -4.657 h -8.488 c -1.812,0 -3.203,-0.492 -4.184,-1.484 -0.988,-0.996 -1.472,-2.246 -1.472,-3.789 V 207.16 l 32.82,36.895 c 1.891,2.144 2.832,4.179 2.832,6.074 0,1.453 -0.648,2.637 -1.949,3.531 -1.293,0.918 -3.418,1.371 -6.359,1.371 h -2.418 v 4.657 h 35.769 v -4.657 h -2.766 c -2.398,0 -5.031,-0.746 -7.898,-2.226 -2.871,-1.485 -5.519,-3.559 -7.957,-6.211 l -20.184,-22.188 28.911,-44.867 c 1.605,-2.516 3.273,-4.312 5.003,-5.367 1.727,-1.055 3.774,-1.582 6.133,-1.582 h 3.176 v -4.649 h -39.305 v 4.649 h 4.477 c 3.262,0 5.434,0.293 6.516,0.867 1.078,0.586 1.621,1.309 1.621,2.18 0,0.777 -0.235,1.562 -0.707,2.351 l -24.032,37.188 -13.683,-15.418 V 177.18 c 0,-1.407 0.387,-2.434 1.176,-3.098 1.257,-0.996 2.75,-1.492 4.48,-1.492 h 8.488 v -4.649 h -39.84 v 4.649 h 7.661 c 1.964,0 3.418,0.43 4.363,1.277 0.941,0.84 1.414,1.946 1.414,3.313 v 73.261 c 0,1.446 -0.531,2.579 -1.594,3.379 -1.062,0.809 -2.847,1.211 -5.363,1.211 h -6.481 v 4.657" /><path
         id="path38"
         style="fill:#204878;fill-opacity:1;fill-rule:nonzero;stroke:none"
         d="m 314.684,259.688 h 69.066 l 1.648,-30.958 h -3.945 c -1.57,9.758 -4.051,16.594 -7.445,20.481 -3.395,3.887 -7.817,5.82 -13.27,5.82 h -17.066 c -1.371,0 -2.41,-0.39 -3.121,-1.172 -0.703,-0.785 -1.059,-1.992 -1.059,-3.593 V 217.57 h 7.465 c 3.996,0 7.238,1.504 9.727,4.532 2.488,3.007 3.828,7.644 4.023,13.886 h 4.066 v -42.492 h -4.066 c -0.195,7.031 -1.559,12.063 -4.082,15.109 -2.527,3.036 -5.965,4.559 -10.316,4.559 h -6.817 v -36.473 c 0,-1.328 0.426,-2.343 1.27,-3.046 0.84,-0.704 2.242,-1.055 4.203,-1.055 h 13.48 c 14.637,0 23.071,9.844 25.305,29.527 h 4.242 l -1.469,-34.176 h -71.839 v 4.649 h 5.953 c 2.316,0 3.949,0.43 4.89,1.277 0.942,0.84 1.414,2.082 1.414,3.684 v 72.715 c 0,1.601 -0.414,2.808 -1.238,3.593 -0.824,0.782 -2.117,1.172 -3.887,1.172 h -7.132 v 4.657" /><path
         id="path40"
         style="fill:#204878;fill-opacity:1;fill-rule:nonzero;stroke:none"
         d="m 442.852,243.938 -15.645,-40.879 h 30.777 z m 1.718,17.675 h 3.946 l 31.257,-83.925 c 1.258,-3.403 3.832,-5.098 7.723,-5.098 h 2.707 v -4.649 h -34.769 v 4.649 h 2.773 c 3.613,0 6.168,0.418 7.66,1.238 1.024,0.586 1.531,1.477 1.531,2.664 0,0.707 -0.136,1.457 -0.41,2.25 l -7.215,19.473 h -34.468 l -4.051,-11.176 c -1.059,-2.965 -1.59,-5.328 -1.59,-7.066 0,-2.024 0.895,-3.762 2.68,-5.207 1.789,-1.453 4.394,-2.176 7.812,-2.176 h 2.946 v -4.649 h -31.586 v 4.649 c 3.379,0 6.047,0.777 8.011,2.332 1.961,1.555 3.77,4.492 5.418,8.84 l 29.625,77.851" /><path
         id="path42"
         style="fill:#ecb00e;fill-opacity:1;fill-rule:nonzero;stroke:none"
         d="m 316.273,448.66 c 2.911,5.785 36.778,44.281 58.438,64.906 17.473,15.938 43.785,38.672 62.602,54.286 0,0 -5.043,-22.762 -21.899,-36.043 -20.867,-16.457 -61.996,-53.508 -89.18,-95.461 0,0 78.2,24.992 128.668,89.922 50.465,64.929 59.903,161.398 53.383,213.429 C 491.188,688.527 411.48,623.086 382.324,602.551 298.148,543.234 313.363,442.863 316.273,448.66" /><path
         id="path44"
         style="fill:#33887d;fill-opacity:1;fill-rule:nonzero;stroke:none"
         d="m 275.32,385.695 c 0,0 4.84,-2.148 4.305,4.297 -0.543,6.461 -5.383,75.821 13.973,112.93 15.058,33.34 19.898,54.844 27.965,80.113 0,0 8.066,-7.527 0.539,-41.402 -7.528,-33.867 -23.661,-76.348 -26.348,-126.367 0,0 53.23,59.16 62.375,140.894 9.141,81.723 -37.106,173.149 -62.914,212.395 0,0 8.066,-71.512 -23.656,-147.332 -31.731,-75.821 -43.024,-128.52 3.761,-235.528" /></g></g></svg>